<mxfile host="Electron" modified="2023-05-27T16:58:16.675Z" agent="Mozilla/5.0 (Windows NT 10.0; Win64; x64) AppleWebKit/537.36 (KHTML, like Gecko) draw.io/21.1.2 Chrome/106.0.5249.199 Electron/21.4.3 Safari/537.36" etag="EnGXNZdll3UTfxTcwfT0" version="21.1.2" type="device">
  <diagram name="Page-1" id="G5k79dQlLbyncZ_Ozo8T">
    <mxGraphModel dx="1206" dy="817" grid="1" gridSize="10" guides="1" tooltips="1" connect="1" arrows="1" fold="1" page="1" pageScale="1" pageWidth="850" pageHeight="1100" math="0" shadow="0">
      <root>
        <mxCell id="0" />
        <mxCell id="1" parent="0" />
        <mxCell id="agIJPDQFeNxfvSHP4tzt-1" value="Figure // Prototype" style="swimlane;fontStyle=3;align=center;verticalAlign=top;childLayout=stackLayout;horizontal=1;startSize=26;horizontalStack=0;resizeParent=1;resizeParentMax=0;resizeLast=0;collapsible=1;marginBottom=0;" parent="1" vertex="1">
          <mxGeometry x="320" y="200" width="160" height="60" as="geometry" />
        </mxCell>
        <mxCell id="agIJPDQFeNxfvSHP4tzt-3" value="" style="line;strokeWidth=1;fillColor=none;align=left;verticalAlign=middle;spacingTop=-1;spacingLeft=3;spacingRight=3;rotatable=0;labelPosition=right;points=[];portConstraint=eastwest;strokeColor=inherit;" parent="agIJPDQFeNxfvSHP4tzt-1" vertex="1">
          <mxGeometry y="26" width="160" height="8" as="geometry" />
        </mxCell>
        <mxCell id="agIJPDQFeNxfvSHP4tzt-4" value="+ clone():Figure" style="text;strokeColor=none;fillColor=none;align=left;verticalAlign=top;spacingLeft=4;spacingRight=4;overflow=hidden;rotatable=0;points=[[0,0.5],[1,0.5]];portConstraint=eastwest;fontStyle=3" parent="agIJPDQFeNxfvSHP4tzt-1" vertex="1">
          <mxGeometry y="34" width="160" height="26" as="geometry" />
        </mxCell>
        <mxCell id="agIJPDQFeNxfvSHP4tzt-5" value="Rectangular" style="swimlane;fontStyle=1;align=center;verticalAlign=top;childLayout=stackLayout;horizontal=1;startSize=26;horizontalStack=0;resizeParent=1;resizeParentMax=0;resizeLast=0;collapsible=1;marginBottom=0;" parent="1" vertex="1">
          <mxGeometry x="70" y="80" width="160" height="124" as="geometry" />
        </mxCell>
        <mxCell id="agIJPDQFeNxfvSHP4tzt-6" value="+ width: int&#xa;+height: int&#xa;+square: int" style="text;strokeColor=none;fillColor=none;align=left;verticalAlign=top;spacingLeft=4;spacingRight=4;overflow=hidden;rotatable=0;points=[[0,0.5],[1,0.5]];portConstraint=eastwest;" parent="agIJPDQFeNxfvSHP4tzt-5" vertex="1">
          <mxGeometry y="26" width="160" height="64" as="geometry" />
        </mxCell>
        <mxCell id="agIJPDQFeNxfvSHP4tzt-7" value="" style="line;strokeWidth=1;fillColor=none;align=left;verticalAlign=middle;spacingTop=-1;spacingLeft=3;spacingRight=3;rotatable=0;labelPosition=right;points=[];portConstraint=eastwest;strokeColor=inherit;" parent="agIJPDQFeNxfvSHP4tzt-5" vertex="1">
          <mxGeometry y="90" width="160" height="8" as="geometry" />
        </mxCell>
        <mxCell id="agIJPDQFeNxfvSHP4tzt-8" value="+ clone(): Rectangular" style="text;strokeColor=none;fillColor=none;align=left;verticalAlign=top;spacingLeft=4;spacingRight=4;overflow=hidden;rotatable=0;points=[[0,0.5],[1,0.5]];portConstraint=eastwest;" parent="agIJPDQFeNxfvSHP4tzt-5" vertex="1">
          <mxGeometry y="98" width="160" height="26" as="geometry" />
        </mxCell>
        <mxCell id="agIJPDQFeNxfvSHP4tzt-13" style="edgeStyle=orthogonalEdgeStyle;rounded=0;orthogonalLoop=1;jettySize=auto;html=1;entryX=0.171;entryY=-0.022;entryDx=0;entryDy=0;entryPerimeter=0;endArrow=block;endFill=0;endSize=16;" parent="1" source="agIJPDQFeNxfvSHP4tzt-6" target="agIJPDQFeNxfvSHP4tzt-1" edge="1">
          <mxGeometry relative="1" as="geometry" />
        </mxCell>
        <mxCell id="agIJPDQFeNxfvSHP4tzt-19" style="edgeStyle=orthogonalEdgeStyle;rounded=0;orthogonalLoop=1;jettySize=auto;html=1;endArrow=block;endFill=0;entryX=0.154;entryY=1.026;entryDx=0;entryDy=0;entryPerimeter=0;exitX=1;exitY=0.5;exitDx=0;exitDy=0;endSize=16;" parent="1" source="agIJPDQFeNxfvSHP4tzt-15" target="agIJPDQFeNxfvSHP4tzt-4" edge="1">
          <mxGeometry relative="1" as="geometry">
            <mxPoint x="360" y="270" as="targetPoint" />
          </mxGeometry>
        </mxCell>
        <mxCell id="agIJPDQFeNxfvSHP4tzt-14" value="Circle" style="swimlane;fontStyle=1;align=center;verticalAlign=top;childLayout=stackLayout;horizontal=1;startSize=26;horizontalStack=0;resizeParent=1;resizeParentMax=0;resizeLast=0;collapsible=1;marginBottom=0;" parent="1" vertex="1">
          <mxGeometry x="70" y="300" width="160" height="124" as="geometry" />
        </mxCell>
        <mxCell id="agIJPDQFeNxfvSHP4tzt-15" value="+ radius: int&#xa;+square: int" style="text;strokeColor=none;fillColor=none;align=left;verticalAlign=top;spacingLeft=4;spacingRight=4;overflow=hidden;rotatable=0;points=[[0,0.5],[1,0.5]];portConstraint=eastwest;" parent="agIJPDQFeNxfvSHP4tzt-14" vertex="1">
          <mxGeometry y="26" width="160" height="64" as="geometry" />
        </mxCell>
        <mxCell id="agIJPDQFeNxfvSHP4tzt-16" value="" style="line;strokeWidth=1;fillColor=none;align=left;verticalAlign=middle;spacingTop=-1;spacingLeft=3;spacingRight=3;rotatable=0;labelPosition=right;points=[];portConstraint=eastwest;strokeColor=inherit;" parent="agIJPDQFeNxfvSHP4tzt-14" vertex="1">
          <mxGeometry y="90" width="160" height="8" as="geometry" />
        </mxCell>
        <mxCell id="agIJPDQFeNxfvSHP4tzt-17" value="+ clone(): Circle" style="text;strokeColor=none;fillColor=none;align=left;verticalAlign=top;spacingLeft=4;spacingRight=4;overflow=hidden;rotatable=0;points=[[0,0.5],[1,0.5]];portConstraint=eastwest;" parent="agIJPDQFeNxfvSHP4tzt-14" vertex="1">
          <mxGeometry y="98" width="160" height="26" as="geometry" />
        </mxCell>
        <mxCell id="agIJPDQFeNxfvSHP4tzt-20" value="" style="group;" parent="1" vertex="1" connectable="0">
          <mxGeometry x="540" y="150" width="260" height="230" as="geometry" />
        </mxCell>
        <mxCell id="agIJPDQFeNxfvSHP4tzt-21" value="" style="shape=note;whiteSpace=wrap;html=1;backgroundOutline=1;darkOpacity=0.05;fillColor=#f5f5f5;fontColor=#333333;strokeColor=#666666;" parent="agIJPDQFeNxfvSHP4tzt-20" vertex="1">
          <mxGeometry width="260" height="230" as="geometry" />
        </mxCell>
        <mxCell id="agIJPDQFeNxfvSHP4tzt-22" value="&lt;h1&gt;Client&lt;/h1&gt;&lt;p&gt;r1 = Rectangular(10,15)&lt;/p&gt;&lt;p&gt;r2 = r1.clone()&lt;/p&gt;&lt;p&gt;&lt;br&gt;&lt;/p&gt;&lt;p&gt;c1 = Circle(15)&lt;/p&gt;&lt;p&gt;c2 = c1.clone()&lt;/p&gt;" style="text;html=1;spacing=5;spacingTop=-20;whiteSpace=wrap;overflow=hidden;rounded=0;" parent="agIJPDQFeNxfvSHP4tzt-20" vertex="1">
          <mxGeometry x="7" y="22" width="230" height="200" as="geometry" />
        </mxCell>
        <mxCell id="agIJPDQFeNxfvSHP4tzt-23" style="edgeStyle=orthogonalEdgeStyle;rounded=0;orthogonalLoop=1;jettySize=auto;html=1;endArrow=classic;endFill=1;dashed=1;dashPattern=12 12;strokeColor=none;" parent="1" source="agIJPDQFeNxfvSHP4tzt-21" target="agIJPDQFeNxfvSHP4tzt-17" edge="1">
          <mxGeometry relative="1" as="geometry" />
        </mxCell>
        <mxCell id="agIJPDQFeNxfvSHP4tzt-24" style="edgeStyle=orthogonalEdgeStyle;rounded=0;orthogonalLoop=1;jettySize=auto;html=1;entryX=1.029;entryY=0.145;entryDx=0;entryDy=0;entryPerimeter=0;dashed=1;endArrow=classic;endFill=1;" parent="1" source="agIJPDQFeNxfvSHP4tzt-21" target="agIJPDQFeNxfvSHP4tzt-5" edge="1">
          <mxGeometry relative="1" as="geometry">
            <Array as="points">
              <mxPoint x="670" y="98" />
            </Array>
          </mxGeometry>
        </mxCell>
        <mxCell id="8THIxvFoV1Ys7KLd0kxc-1" style="edgeStyle=orthogonalEdgeStyle;rounded=0;orthogonalLoop=1;jettySize=auto;html=1;entryX=1;entryY=0.5;entryDx=0;entryDy=0;dashed=1;" edge="1" parent="1" target="agIJPDQFeNxfvSHP4tzt-17">
          <mxGeometry relative="1" as="geometry">
            <mxPoint x="662" y="380" as="sourcePoint" />
          </mxGeometry>
        </mxCell>
      </root>
    </mxGraphModel>
  </diagram>
</mxfile>
